HIERARCHY
ROOT Hips
{
	OFFSET -3.958830 18.904000 13.208200
	CHANNELS 6 Xposition Yposition Zposition Zrotation Yrotation Xrotation 
	JOINT LHipJoint
	{
		OFFSET 0.000000 0.000000 0.000000
		CHANNELS 3 Zrotation Yrotation Xrotation
		JOINT LeftUpLeg
		{
			OFFSET 1.800000 -1.400000 0.085000
			CHANNELS 3 Zrotation Yrotation Xrotation
			JOINT LeftLeg
			{
				OFFSET 2.215000 -6.000000 0.000000
				CHANNELS 3 Zrotation Yrotation Xrotation
				JOINT LeftFoot
				{
					OFFSET 2.500000 -6.900000 0.000000
					CHANNELS 3 Zrotation Yrotation Xrotation
					JOINT LeftToeBase
					{
						OFFSET 0.200000 -0.500000 1.950000
						CHANNELS 3 Zrotation Yrotation Xrotation
						End Site
						{
							OFFSET 0.000000 0.000000 0.000000
						}
					}
				}
			}
		}
	}
	JOINT RHipJoint
	{
		OFFSET 0.000000 0.000000 0.000000
		CHANNELS 3 Zrotation Yrotation Xrotation
		JOINT RightUpLeg
		{
			OFFSET -1.800000 -1.400000 0.085000
			CHANNELS 3 Zrotation Yrotation Xrotation
			JOINT RightLeg
			{
				OFFSET -2.215000 -6.000000 0.000000
				CHANNELS 3 Zrotation Yrotation Xrotation
				JOINT RightFoot
				{
					OFFSET -2.500000 -6.900000 0.000000
					CHANNELS 3 Zrotation Yrotation Xrotation
					JOINT RightToeBase
					{
						OFFSET -0.200000 -0.500000 1.950000
						CHANNELS 3 Zrotation Yrotation Xrotation
						End Site
						{
							OFFSET 0.000000 0.000000 0.000000
						}
					}
				}
			}
		}
	}
	JOINT LowerBack
	{
		OFFSET 0.000000 0.000000 0.000000
		CHANNELS 3 Zrotation Yrotation Xrotation
		JOINT Spine
		{
			OFFSET -0.087000 1.940000 -0.288900
			CHANNELS 3 Zrotation Yrotation Xrotation
			JOINT Spine1
			{
				OFFSET 0.000000 1.950000 0.060000
				CHANNELS 3 Zrotation Yrotation Xrotation
				JOINT Neck
				{
					OFFSET 0.000000 0.000000 0.000000
					CHANNELS 3 Zrotation Yrotation Xrotation
					JOINT Neck1
					{
						OFFSET 0.000000 1.600000 0.340000
						CHANNELS 3 Zrotation Yrotation Xrotation
						JOINT Head
						{
							OFFSET 0.000000 1.667000 -0.240000
							CHANNELS 3 Zrotation Yrotation Xrotation
							End Site
							{
								OFFSET 0.000000 0.000000 0.000000
							}
						}
					}
				}
				JOINT LeftShoulder
				{
					OFFSET 0.000000 0.000000 0.000000
					CHANNELS 3 Zrotation Yrotation Xrotation
					JOINT LeftArm
					{
						OFFSET 2.700000 1.550000 -0.730000
						CHANNELS 3 Zrotation Yrotation Xrotation
						JOINT LeftForeArm
						{
							OFFSET 5.450000 0.000000 0.000000
							CHANNELS 3 Zrotation Yrotation Xrotation
							JOINT LeftHand
							{
								OFFSET 3.450000 0.000000 0.000000
								CHANNELS 3 Zrotation Yrotation Xrotation
								JOINT LeftHandIndex1
								{
									OFFSET 0.750000 0.000000 0.000000
									CHANNELS 3 Zrotation Yrotation Xrotation
									End Site
									{
										OFFSET 0.000000 0.000000 0.000000
									}
								}
							}
						}
					}
				}
				JOINT RightShoulder
				{
					OFFSET 0.000000 0.000000 0.000000
					CHANNELS 3 Zrotation Yrotation Xrotation
					JOINT RightArm
					{
						OFFSET -2.700000 1.550000 -0.730000
						CHANNELS 3 Zrotation Yrotation Xrotation
						JOINT RightForeArm
						{
							OFFSET -5.450000 0.000000 0.000000
							CHANNELS 3 Zrotation Yrotation Xrotation
							JOINT RightHand
							{
								OFFSET -3.450000 0.000000 0.000000
								CHANNELS 3 Zrotation Yrotation Xrotation
								JOINT RightHandIndex1
								{
									OFFSET -0.750000 0.000000 0.000000
									CHANNELS 3 Zrotation Yrotation Xrotation
									End Site
									{
										OFFSET 0.000000 0.000000 0.000000
									}
								}
							}
						}
					}
				}
			}
		}
	}
}
MOTION
Frames: 6
Frame Time: 0.016667
-0.951700 17.102850 -2.605710 -17.068530 -6.687460 -6.140329 -15.000370 12.209433 1.987515 17.288187 -0.921772 -28.103453 13.518324 3.599334 35.768251 -0.629327 5.804344 2.227806 1.156920 0.525470 1.155900 18.654598 -9.132521 5.661544 -14.506458 14.901105 -38.947526 44.281820 -30.661695 48.720822 -2.742213 -11.893352 0.646690 0.248650 -0.359200 0.319970 -4.323704 -0.494550 -8.854881 -4.121167 0.127077 40.153255 -15.662863 1.225278 7.303261 2.201881 -1.098931 -13.762870 -6.833967 10.765377 77.163067 -0.923070 10.297830 -11.232170 -14.036470 -19.789244 6.039272 -19.220922 -2.278538 -10.799599 -85.315108 -45.478254 30.236018 -3.200141 3.434696 1.105010 -0.209660 0.356740 0.146370 9.867260 21.836547 6.589626 63.559365 20.992221 -9.362452 49.213712 33.481398 6.768446 2.057394 -1.765930 -0.041450 0.026260 -0.359340 -0.600190 
-0.945270 17.130400 -2.608440 -17.494436 -5.877352 -6.295147 -14.984098 12.245547 1.880541 16.571454 -0.989336 -27.561486 14.685692 2.919546 34.228026 -0.658588 5.526944 2.343207 1.152160 0.515650 1.162580 18.664683 -9.119733 5.756489 -14.866633 14.733085 -39.449612 46.387597 -32.238340 48.810786 -2.836396 -12.151171 0.590296 0.241470 -0.358110 0.324400 -4.354092 -0.528820 -8.854102 -3.726452 -0.307017 40.572081 -15.813830 0.844077 7.280140 2.354154 -1.037214 -13.845157 -6.586230 10.656217 77.196628 -1.387280 10.495990 -11.277530 -14.117303 -20.101618 6.151965 -19.188071 -2.121332 -10.881221 -86.162661 -44.880148 30.007462 -3.198076 3.430763 1.108270 -0.206030 0.359330 0.143170 9.658322 21.984854 6.645912 63.572265 20.946373 -9.560941 49.769766 33.412773 6.790951 2.057266 -1.765892 -0.042960 0.028580 -0.357040 -0.603810 
-0.923970 17.203770 -2.609730 -19.205051 -4.385964 -6.252167 -14.907432 12.236018 1.629156 15.998381 -0.798646 -26.025307 16.500229 1.878993 29.639109 -0.775512 4.862110 2.608398 1.140020 0.488370 1.177490 18.738718 -9.111591 5.991857 -15.102742 14.731473 -41.266876 51.959302 -36.158758 48.653395 -3.051063 -12.670656 0.481733 0.237220 -0.363430 0.316690 -4.559175 -0.390172 -8.870565 -1.336060 -1.857460 41.061557 -17.099571 -0.038949 7.272107 2.831051 -0.986420 -14.067613 -6.422904 10.614226 78.019009 -2.113810 10.586400 -11.966080 -14.307732 -20.716815 6.363324 -19.240395 -1.859518 -10.945626 -87.417245 -43.492274 29.140938 -3.186850 3.389365 1.146140 -0.213690 0.366490 0.126600 8.876409 22.058954 6.789187 64.074284 20.816694 -9.903221 50.876660 33.350200 6.864080 2.043904 -1.743762 -0.071510 0.055580 -0.338510 -0.627170 
-0.900190 17.275320 -2.620360 -21.088061 -3.601820 -5.672865 -14.832515 12.148500 1.408343 16.299658 -0.453782 -24.272421 17.006545 1.495799 24.368992 -0.877885 4.223486 2.857721 1.148260 0.471360 1.201700 18.828456 -9.058785 6.232786 -14.928718 15.027232 -44.321046 57.176029 -41.057019 49.566845 -3.292288 -13.322552 0.333845 0.240160 -0.382490 0.316880 -4.790567 -0.211831 -8.901186 1.337104 -3.436540 40.593912 -18.767967 -0.695736 7.641977 3.366458 -1.225056 -14.258816 -7.057428 11.254358 78.067555 -2.262050 10.455450 -12.185130 -13.992107 -20.964818 6.598295 -20.135108 -1.886642 -11.000295 -86.185687 -44.863529 29.638277 -3.173724 3.389555 1.169420 -0.230640 0.366730 0.113280 7.441951 21.989222 6.879273 64.225153 21.380871 -9.454453 52.701914 33.629654 7.388339 2.039980 -1.768723 -0.083950 0.048820 -0.333790 -0.648040 
-0.880500 17.319070 -2.629810 -23.520819 -3.219224 -4.670887 -14.739132 11.911997 1.310513 17.959236 -0.082305 -23.535343 16.767694 1.578379 20.779860 -0.952666 3.958031 2.952671 1.126200 0.422620 1.190620 18.955850 -9.014423 6.386548 -14.008384 15.552747 -47.777811 62.393178 -46.293872 50.137721 -3.492517 -13.897793 0.216408 0.231090 -0.375190 0.330270 -5.113014 0.159296 -8.967249 5.157811 -5.430313 39.306754 -21.237567 -1.291729 7.952910 4.043332 -1.533130 -14.242876 -7.642213 11.882405 77.407140 -2.734340 10.450750 -12.080280 -13.286197 -20.722622 6.652446 -20.754470 -2.197922 -10.739066 -87.294651 -45.292838 30.577081 -3.203109 3.399948 1.185530 -0.220860 0.346470 0.094080 5.263256 21.385450 6.903054 65.502293 22.195046 -8.688701 53.848425 33.862870 7.795040 2.012196 -1.799304 -0.105870 0.036910 -0.300360 -0.666920 
-0.861120 17.360420 -2.641760 -25.236997 -3.730270 -3.865496 -14.675185 11.698385 1.254656 19.749267 0.238897 -22.795544 15.987989 1.865072 18.544949 -1.000695 3.860492 2.978513 1.113550 0.408910 1.192750 19.050810 -8.957932 6.503135 -13.277623 16.139523 -51.245292 66.368332 -51.713498 51.419657 -3.698297 -14.440474 0.115162 0.229450 -0.380230 0.333440 -5.350967 0.466006 -9.017827 7.496379 -6.702157 38.177454 -23.515426 -1.566580 8.217384 4.639143 -1.786344 -14.320449 -8.214094 12.612322 77.143855 -3.601610 10.696010 -13.624330 -12.839103 -20.527398 6.804647 -21.324870 -1.979311 -10.736135 -87.299982 -47.631826 32.659058 -3.218252 3.369264 1.213640 -0.226860 0.356140 0.072700 3.513999 21.060007 6.894226 66.932435 23.363174 -7.745534 54.145715 34.317471 8.142387 1.991483 -1.789618 -0.120650 0.054900 -0.274010 -0.679630 
